<mxfile host="app.diagrams.net" modified="2023-10-17T05:26:23.234Z" agent="Mozilla/5.0 (Windows NT 10.0; Win64; x64) AppleWebKit/537.36 (KHTML, like Gecko) Chrome/117.0.0.0 Safari/537.36" etag="nStieGjbfBNMHmx8p7pq" version="22.0.4" type="github">
  <diagram name="第 1 页" id="914V8sja4CJvC9ZfgKHP">
    <mxGraphModel dx="1434" dy="758" grid="1" gridSize="10" guides="1" tooltips="1" connect="1" arrows="1" fold="1" page="1" pageScale="1" pageWidth="827" pageHeight="1169" math="0" shadow="0">
      <root>
        <mxCell id="0" />
        <mxCell id="1" parent="0" />
        <mxCell id="JjGzEYIckytB1pQJp3Co-11" style="edgeStyle=orthogonalEdgeStyle;rounded=0;orthogonalLoop=1;jettySize=auto;html=1;entryX=0.5;entryY=0;entryDx=0;entryDy=0;" parent="1" source="tSgFQOaB9TfaK_oSHJal-1" target="tSgFQOaB9TfaK_oSHJal-12" edge="1">
          <mxGeometry relative="1" as="geometry" />
        </mxCell>
        <mxCell id="tSgFQOaB9TfaK_oSHJal-1" value="" style="rounded=1;whiteSpace=wrap;html=1;dashed=1;dashPattern=8 8;" parent="1" vertex="1">
          <mxGeometry x="240" y="40" width="320" height="140" as="geometry" />
        </mxCell>
        <mxCell id="tSgFQOaB9TfaK_oSHJal-3" value="&lt;div style=&quot;font-size: 20px;&quot;&gt;&lt;font style=&quot;font-size: 20px;&quot;&gt;Data source&lt;/font&gt;&lt;/div&gt;" style="text;html=1;strokeColor=none;fillColor=none;align=center;verticalAlign=middle;whiteSpace=wrap;rounded=0;fontStyle=1" parent="1" vertex="1">
          <mxGeometry x="330" y="40" width="140" height="30" as="geometry" />
        </mxCell>
        <mxCell id="tSgFQOaB9TfaK_oSHJal-4" value="News media" style="rounded=0;whiteSpace=wrap;html=1;" parent="1" vertex="1">
          <mxGeometry x="300" y="80" width="200" height="20" as="geometry" />
        </mxCell>
        <mxCell id="tSgFQOaB9TfaK_oSHJal-6" value="Government website" style="rounded=0;whiteSpace=wrap;html=1;" parent="1" vertex="1">
          <mxGeometry x="300" y="110" width="200" height="20" as="geometry" />
        </mxCell>
        <mxCell id="tSgFQOaB9TfaK_oSHJal-8" value="Food safety surveillance system" style="rounded=0;whiteSpace=wrap;html=1;" parent="1" vertex="1">
          <mxGeometry x="300" y="140" width="200" height="20" as="geometry" />
        </mxCell>
        <mxCell id="JjGzEYIckytB1pQJp3Co-5" style="edgeStyle=orthogonalEdgeStyle;rounded=0;orthogonalLoop=1;jettySize=auto;html=1;entryX=0.5;entryY=0;entryDx=0;entryDy=0;" parent="1" source="JjGzEYIckytB1pQJp3Co-3" target="tSgFQOaB9TfaK_oSHJal-24" edge="1">
          <mxGeometry relative="1" as="geometry" />
        </mxCell>
        <mxCell id="JjGzEYIckytB1pQJp3Co-6" style="edgeStyle=orthogonalEdgeStyle;rounded=0;orthogonalLoop=1;jettySize=auto;html=1;entryX=0.5;entryY=0;entryDx=0;entryDy=0;exitX=0.5;exitY=1;exitDx=0;exitDy=0;" parent="1" source="UhX6gxyfYK8tnjNSwVaa-1" target="tSgFQOaB9TfaK_oSHJal-36" edge="1">
          <mxGeometry relative="1" as="geometry" />
        </mxCell>
        <mxCell id="tSgFQOaB9TfaK_oSHJal-11" value="" style="rounded=1;whiteSpace=wrap;html=1;dashed=1;dashPattern=8 8;movable=1;resizable=1;rotatable=1;deletable=1;editable=1;locked=0;connectable=1;" parent="1" vertex="1">
          <mxGeometry x="240" y="240" width="320" height="120" as="geometry" />
        </mxCell>
        <mxCell id="tSgFQOaB9TfaK_oSHJal-12" value="&lt;div style=&quot;&quot;&gt;&lt;div style=&quot;&quot;&gt;&lt;font style=&quot;font-size: 20px;&quot;&gt;Collection and processing&lt;/font&gt;&lt;/div&gt;&lt;/div&gt;" style="text;html=1;strokeColor=none;fillColor=none;align=center;verticalAlign=middle;whiteSpace=wrap;rounded=0;fontStyle=1;movable=1;resizable=1;rotatable=1;deletable=1;editable=1;locked=0;connectable=1;" parent="1" vertex="1">
          <mxGeometry x="255" y="240" width="290" height="50" as="geometry" />
        </mxCell>
        <mxCell id="tSgFQOaB9TfaK_oSHJal-13" value="&lt;div&gt;Data acquisition&lt;/div&gt;" style="rounded=0;whiteSpace=wrap;html=1;movable=1;resizable=1;rotatable=1;deletable=1;editable=1;locked=0;connectable=1;" parent="1" vertex="1">
          <mxGeometry x="294" y="310" width="80" height="30" as="geometry" />
        </mxCell>
        <mxCell id="tSgFQOaB9TfaK_oSHJal-14" value="&lt;div&gt;Data preprocessing&lt;/div&gt;" style="rounded=0;whiteSpace=wrap;html=1;movable=1;resizable=1;rotatable=1;deletable=1;editable=1;locked=0;connectable=1;" parent="1" vertex="1">
          <mxGeometry x="430" y="310" width="80" height="30" as="geometry" />
        </mxCell>
        <mxCell id="UhX6gxyfYK8tnjNSwVaa-3" style="edgeStyle=orthogonalEdgeStyle;rounded=0;orthogonalLoop=1;jettySize=auto;html=1;" parent="1" source="tSgFQOaB9TfaK_oSHJal-23" edge="1">
          <mxGeometry relative="1" as="geometry">
            <mxPoint x="350" y="487.5" as="targetPoint" />
          </mxGeometry>
        </mxCell>
        <mxCell id="JjGzEYIckytB1pQJp3Co-9" style="edgeStyle=orthogonalEdgeStyle;rounded=0;orthogonalLoop=1;jettySize=auto;html=1;entryX=0;entryY=0.5;entryDx=0;entryDy=0;" parent="1" source="tSgFQOaB9TfaK_oSHJal-23" target="tSgFQOaB9TfaK_oSHJal-47" edge="1">
          <mxGeometry relative="1" as="geometry" />
        </mxCell>
        <mxCell id="tSgFQOaB9TfaK_oSHJal-23" value="" style="rounded=1;whiteSpace=wrap;html=1;strokeColor=default;dashed=1;dashPattern=12 12;" parent="1" vertex="1">
          <mxGeometry x="40" y="440" width="200" height="95" as="geometry" />
        </mxCell>
        <mxCell id="tSgFQOaB9TfaK_oSHJal-24" value="&lt;font style=&quot;font-size: 20px;&quot;&gt;Storage&lt;/font&gt;" style="text;html=1;strokeColor=none;fillColor=none;align=center;verticalAlign=middle;whiteSpace=wrap;rounded=0;fontStyle=1" parent="1" vertex="1">
          <mxGeometry x="55" y="440" width="160" height="50" as="geometry" />
        </mxCell>
        <mxCell id="tSgFQOaB9TfaK_oSHJal-28" value="Database (MySQL)" style="rounded=0;whiteSpace=wrap;html=1;" parent="1" vertex="1">
          <mxGeometry x="57.5" y="490" width="155" height="30" as="geometry" />
        </mxCell>
        <mxCell id="JjGzEYIckytB1pQJp3Co-10" style="edgeStyle=orthogonalEdgeStyle;rounded=0;orthogonalLoop=1;jettySize=auto;html=1;entryX=1;entryY=0.5;entryDx=0;entryDy=0;" parent="1" source="tSgFQOaB9TfaK_oSHJal-36" target="tSgFQOaB9TfaK_oSHJal-47" edge="1">
          <mxGeometry relative="1" as="geometry" />
        </mxCell>
        <mxCell id="tSgFQOaB9TfaK_oSHJal-36" value="" style="rounded=1;whiteSpace=wrap;html=1;strokeColor=default;dashed=1;dashPattern=12 12;" parent="1" vertex="1">
          <mxGeometry x="560" y="440" width="200" height="95" as="geometry" />
        </mxCell>
        <mxCell id="tSgFQOaB9TfaK_oSHJal-37" value="&lt;font style=&quot;font-size: 20px;&quot;&gt;Model&lt;/font&gt;" style="text;html=1;strokeColor=none;fillColor=none;align=center;verticalAlign=middle;whiteSpace=wrap;rounded=0;fontStyle=1" parent="1" vertex="1">
          <mxGeometry x="580" y="440" width="160" height="50" as="geometry" />
        </mxCell>
        <mxCell id="tSgFQOaB9TfaK_oSHJal-47" value="" style="rounded=1;whiteSpace=wrap;html=1;strokeColor=default;dashed=1;dashPattern=12 12;" parent="1" vertex="1">
          <mxGeometry x="225" y="585" width="350" height="190" as="geometry" />
        </mxCell>
        <mxCell id="tSgFQOaB9TfaK_oSHJal-50" value="&lt;div&gt;&lt;font style=&quot;font-size: 20px;&quot;&gt;Automated detection system&lt;/font&gt;&lt;/div&gt;" style="text;html=1;strokeColor=none;fillColor=none;align=center;verticalAlign=middle;whiteSpace=wrap;rounded=0;fontStyle=1" parent="1" vertex="1">
          <mxGeometry x="240.63" y="600" width="320" height="45" as="geometry" />
        </mxCell>
        <mxCell id="tSgFQOaB9TfaK_oSHJal-52" value="&lt;div&gt;Food safety risk factors&lt;/div&gt;" style="rounded=0;whiteSpace=wrap;html=1;" parent="1" vertex="1">
          <mxGeometry x="311.25" y="710" width="178.75" height="30" as="geometry" />
        </mxCell>
        <mxCell id="UhX6gxyfYK8tnjNSwVaa-5" style="edgeStyle=orthogonalEdgeStyle;rounded=0;orthogonalLoop=1;jettySize=auto;html=1;entryX=0;entryY=0.5;entryDx=0;entryDy=0;" parent="1" source="UhX6gxyfYK8tnjNSwVaa-2" target="tSgFQOaB9TfaK_oSHJal-36" edge="1">
          <mxGeometry relative="1" as="geometry" />
        </mxCell>
        <mxCell id="UhX6gxyfYK8tnjNSwVaa-2" value="Deep Learning" style="rounded=0;whiteSpace=wrap;html=1;" parent="1" vertex="1">
          <mxGeometry x="352.5" y="472.5" width="95" height="30" as="geometry" />
        </mxCell>
        <mxCell id="JjGzEYIckytB1pQJp3Co-7" value="" style="edgeStyle=orthogonalEdgeStyle;rounded=0;orthogonalLoop=1;jettySize=auto;html=1;entryX=0.5;entryY=0;entryDx=0;entryDy=0;exitX=1;exitY=0.5;exitDx=0;exitDy=0;" parent="1" source="tSgFQOaB9TfaK_oSHJal-11" target="UhX6gxyfYK8tnjNSwVaa-1" edge="1">
          <mxGeometry relative="1" as="geometry">
            <mxPoint x="560" y="300" as="sourcePoint" />
            <mxPoint x="660" y="440" as="targetPoint" />
          </mxGeometry>
        </mxCell>
        <mxCell id="UhX6gxyfYK8tnjNSwVaa-1" value="&lt;div&gt;Data update&lt;/div&gt;" style="rounded=0;whiteSpace=wrap;html=1;movable=1;resizable=1;rotatable=1;deletable=1;editable=1;locked=0;connectable=1;" parent="1" vertex="1">
          <mxGeometry x="620" y="360" width="80" height="30" as="geometry" />
        </mxCell>
        <mxCell id="JjGzEYIckytB1pQJp3Co-8" value="" style="edgeStyle=orthogonalEdgeStyle;rounded=0;orthogonalLoop=1;jettySize=auto;html=1;entryX=0.5;entryY=0;entryDx=0;entryDy=0;" parent="1" source="tSgFQOaB9TfaK_oSHJal-11" target="JjGzEYIckytB1pQJp3Co-3" edge="1">
          <mxGeometry relative="1" as="geometry">
            <mxPoint x="240" y="300" as="sourcePoint" />
            <mxPoint x="135" y="440" as="targetPoint" />
          </mxGeometry>
        </mxCell>
        <mxCell id="JjGzEYIckytB1pQJp3Co-3" value="&lt;div&gt;Expert annotations&lt;/div&gt;" style="rounded=0;whiteSpace=wrap;html=1;movable=1;resizable=1;rotatable=1;deletable=1;editable=1;locked=0;connectable=1;" parent="1" vertex="1">
          <mxGeometry x="95" y="360" width="80" height="30" as="geometry" />
        </mxCell>
        <mxCell id="sy332ecnqqShqoDDvNOZ-1" value="BERT" style="rounded=0;whiteSpace=wrap;html=1;" parent="1" vertex="1">
          <mxGeometry x="620" y="490" width="80" height="30" as="geometry" />
        </mxCell>
        <mxCell id="sy332ecnqqShqoDDvNOZ-2" value="&lt;div&gt;Food safety regulatory changes&lt;/div&gt;" style="rounded=0;whiteSpace=wrap;html=1;" parent="1" vertex="1">
          <mxGeometry x="312.5" y="660" width="177.5" height="30" as="geometry" />
        </mxCell>
      </root>
    </mxGraphModel>
  </diagram>
</mxfile>
